<svg width="18" height="16" viewBox="0 0 18 16" fill="none" xmlns="http://www.w3.org/2000/svg">
<path d="M14.625 2.28571V0H3.375V2.28571H0V4.57143C0 5.04762 0.0878906 5.49405 0.263672 5.91071C0.439453 6.32738 0.679687 6.69048 0.984375 7C1.28906 7.30952 1.64648 7.55357 2.05664 7.73214C2.4668 7.91071 2.90625 8 3.375 8C3.55078 8 3.7207 7.9881 3.88477 7.96429C4.06055 7.92857 4.23047 7.8869 4.39453 7.83929C4.79297 8.43452 5.29102 8.93452 5.88867 9.33929C6.49805 9.74405 7.16016 10.0238 7.875 10.1786V13.7143H6.75C6.12891 13.7143 5.5957 13.9405 5.15039 14.3929C4.7168 14.8333 4.5 15.369 4.5 16H13.5C13.5 15.369 13.2773 14.8333 12.832 14.3929C12.3984 13.9405 11.8711 13.7143 11.25 13.7143H10.125V10.1786C10.8398 10.0238 11.4961 9.74405 12.0937 9.33929C12.7031 8.93452 13.207 8.43452 13.6055 7.83929C13.7695 7.8869 13.9336 7.92857 14.0977 7.96429C14.2734 7.9881 14.4492 8 14.625 8C15.0937 8 15.5332 7.91071 15.9434 7.73214C16.3535 7.55357 16.7109 7.30952 17.0156 7C17.3203 6.69048 17.5605 6.32738 17.7363 5.91071C17.9121 5.49405 18 5.04762 18 4.57143V2.28571H14.625ZM3.375 6.64286C2.8125 6.64286 2.33203 6.44048 1.93359 6.03571C1.53516 5.63095 1.33594 5.14286 1.33594 4.57143V3.42857H3.375V4.57143C3.375 4.92857 3.4043 5.27976 3.46289 5.625C3.5332 5.95833 3.62695 6.28571 3.74414 6.60714C3.68555 6.61905 3.62109 6.63095 3.55078 6.64286C3.49219 6.64286 3.43359 6.64286 3.375 6.64286ZM16.6641 4.57143C16.6641 5.14286 16.4648 5.63095 16.0664 6.03571C15.668 6.44048 15.1875 6.64286 14.625 6.64286C14.5664 6.64286 14.502 6.64286 14.4316 6.64286C14.373 6.63095 14.3145 6.61905 14.2559 6.60714C14.373 6.28571 14.4609 5.95833 14.5195 5.625C14.5898 5.27976 14.625 4.92857 14.625 4.57143V3.42857H16.6641V4.57143Z" fill="#FFC149"/>
</svg>